<svg width="22" height="18" viewBox="0 0 22 18" fill="none" xmlns="http://www.w3.org/2000/svg">
<path d="M15.8889 6.11111C15.8889 2.73472 12.333 0 7.94444 0C3.5559 0 0 2.73472 0 6.11111C0 7.42118 0.538542 8.62813 1.45139 9.625C0.939583 10.7785 0.0954861 11.6951 0.0840278 11.7066C0 11.7944 -0.0229167 11.9243 0.0267361 12.0389C0.0763889 12.1535 0.183333 12.2222 0.305556 12.2222C1.70347 12.2222 2.86076 11.7524 3.6934 11.2674C4.92326 11.867 6.37847 12.2222 7.94444 12.2222C12.333 12.2222 15.8889 9.4875 15.8889 6.11111ZM20.5486 14.5139C21.4615 13.5208 22 12.3101 22 11C22 8.44479 19.9566 6.25625 17.0615 5.3434C17.0958 5.59549 17.1111 5.85139 17.1111 6.11111C17.1111 10.1559 12.9976 13.4444 7.94444 13.4444C7.53194 13.4444 7.1309 13.4139 6.73368 13.3719C7.93681 15.5681 10.7632 17.1111 14.0556 17.1111C15.6215 17.1111 17.0767 16.7597 18.3066 16.1562C19.1392 16.6413 20.2965 17.1111 21.6944 17.1111C21.8167 17.1111 21.9274 17.0385 21.9733 16.9278C22.0229 16.817 22 16.6872 21.916 16.5955C21.9045 16.584 21.0604 15.6712 20.5486 14.5139Z" fill="#DBDBDB"/>
</svg>
