<svg width="21" height="21" viewBox="0 0 21 21" fill="none" xmlns="http://www.w3.org/2000/svg">
<path d="M10.5 13.125C11.9497 13.125 13.125 11.9497 13.125 10.5C13.125 9.05025 11.9497 7.875 10.5 7.875C9.05025 7.875 7.875 9.05025 7.875 10.5C7.875 11.9497 9.05025 13.125 10.5 13.125Z" fill="#DBDBDB"/>
<path d="M20.3044 10.2769C19.5325 8.28033 18.1925 6.55372 16.4501 5.31043C14.7076 4.06715 12.639 3.36169 10.5 3.28125C8.36096 3.36169 6.29238 4.06715 4.54991 5.31043C2.80744 6.55372 1.46748 8.28033 0.69562 10.2769C0.643493 10.4211 0.643493 10.5789 0.69562 10.7231C1.46748 12.7197 2.80744 14.4463 4.54991 15.6896C6.29238 16.9329 8.36096 17.6383 10.5 17.7188C12.639 17.6383 14.7076 16.9329 16.4501 15.6896C18.1925 14.4463 19.5325 12.7197 20.3044 10.7231C20.3565 10.5789 20.3565 10.4211 20.3044 10.2769ZM10.5 14.7656C9.65634 14.7656 8.83162 14.5155 8.13014 14.0467C7.42866 13.578 6.88193 12.9118 6.55907 12.1324C6.23622 11.3529 6.15174 10.4953 6.31633 9.66782C6.48092 8.84037 6.88719 8.08031 7.48374 7.48375C8.0803 6.88719 8.84036 6.48093 9.66781 6.31634C10.4953 6.15175 11.3529 6.23622 12.1324 6.55908C12.9118 6.88193 13.578 7.42867 14.0467 8.13015C14.5154 8.83162 14.7656 9.65634 14.7656 10.5C14.7639 11.6308 14.3139 12.7148 13.5143 13.5143C12.7147 14.3139 11.6308 14.7639 10.5 14.7656Z" fill="#DBDBDB"/>
</svg>
