<svg width="76" height="68" viewBox="0 0 76 68" fill="none" xmlns="http://www.w3.org/2000/svg">
<path d="M27.3413 0H41.7067C45.4921 0 48.6163 3.12382 48.6163 6.90881V19.4616H61.1225C64.9655 19.4616 68.0321 22.5279 68.0321 26.3704V36.7384C66.0005 36.0772 64.0263 35.4735 62.0042 34.8219V26.38C62.0042 25.8817 61.6209 25.4984 61.1225 25.4984H42.5309V6.90881C42.5309 6.41053 42.1475 6.02724 41.7067 6.02724H27.3413C26.8429 6.02724 26.4596 6.41053 26.4596 6.90881V25.4984H7.86793C7.3696 25.4984 7.04376 25.8817 7.04376 26.38V40.7438C7.04376 41.1845 7.3696 41.5678 7.86793 41.5678C14.0683 41.5678 20.2592 41.5678 26.4596 41.5678C26.4596 46.8285 26.4596 52.0987 26.4596 57.3594C32.4396 52.0987 38.41 46.8285 44.4475 41.5678H55.248C55.8517 43.5993 56.513 45.6211 57.1646 47.5951H46.6996L25.53 66.2421C23.6613 68.0532 20.4317 66.7404 20.4317 64.0478V47.5951H7.87751C4.09209 47.5951 0.967926 44.5288 0.967926 40.7438V26.38C0.967926 22.5375 4.09209 19.4711 7.87751 19.4711H20.4317V6.91839C20.4317 3.12382 23.5559 0 27.3413 0Z" fill="#003362"/>
<path fill-rule="evenodd" clip-rule="evenodd" d="M73.9546 44.0305C75.2675 43.5322 75.4879 41.6732 73.8971 41.0695C68.5784 39.3735 63.4225 37.6678 57.9888 35.9718C56.8963 35.5885 56.0146 36.4701 56.3979 37.6199C58.0942 42.9956 59.8 48.1508 61.4963 53.5265C62.1 55.0596 63.9113 54.8392 64.4575 53.5265C66.7767 47.9783 68.3675 46.3302 73.9546 44.0305Z" fill="#C3031A"/>
<path d="M22.7413 37.9458C22.195 37.9458 21.7542 37.505 21.7542 36.9588C21.7542 36.3551 22.195 35.9144 22.7413 35.9144H27.6767L30.1971 24.1761C30.3025 23.6299 30.8584 23.2945 31.4046 23.4095C31.788 23.5149 32.1138 23.8503 32.1713 24.2336L35.5159 38.0512L36.6659 32.5127C36.7713 31.9665 37.2696 31.5832 37.8159 31.6886C38.1417 31.7461 38.4196 32.0144 38.525 32.2923L40.0584 35.9144H46.2588C46.805 35.9144 47.3033 36.3551 47.3033 36.9588C47.3033 37.505 46.805 37.9458 46.2588 37.9458H39.4067C39.0234 37.9458 38.64 37.7254 38.4771 37.3421L37.9788 36.0773L36.6084 42.8232C36.5029 43.2064 36.225 43.5322 35.8417 43.6472C35.2954 43.7526 34.7492 43.4268 34.6342 42.8807L31.2417 28.9001L29.4304 37.1217C29.373 37.5625 28.9321 37.9458 28.4434 37.9458H22.7413Z" fill="#C3031A"/>
</svg>
