<svg width="33" height="33" viewBox="0 0 33 33" fill="none" xmlns="http://www.w3.org/2000/svg">
<path d="M16.25 0.25C7.41077 0.25 0.25 7.41181 0.25 16.25C0.25 25.0882 7.41181 32.25 16.25 32.25C25.0892 32.25 32.25 25.0882 32.25 16.25C32.25 7.41181 25.0882 0.25 16.25 0.25ZM24.1086 11.2115L21.4825 23.5863C21.2885 24.4637 20.7661 24.6763 20.0374 24.2634L16.0374 21.3153L14.1081 23.1734C13.8954 23.386 13.7148 23.5666 13.3019 23.5666L13.5857 19.4954L20.9984 12.7981C21.3215 12.5143 20.9272 12.3532 20.5008 12.6371L11.3395 18.4043L7.39116 17.1718C6.53335 16.9014 6.51374 16.314 7.57181 15.9011L22.9979 9.95219C23.7143 9.69413 24.3398 10.1266 24.1075 11.2105L24.1086 11.2115Z" fill="#DBDBDB"/>
</svg>
